HIERARCHY
ROOT hip
{
	OFFSET	0.00  0.00  0.00 
	CHANNELS 6 Xposition Yposition Zposition Xrotation Zrotation Yrotation
	JOINT waist
	{
		OFFSET	0.000000 2.191865 -0.079388
		CHANNELS 3 Xrotation Zrotation Yrotation
		JOINT abdomen
		{
			OFFSET	0.000000 2.770984 0.119082
			CHANNELS 3 Xrotation Zrotation Yrotation
			JOINT chest
			{
				OFFSET	0.000000 2.879627 -0.290598
				CHANNELS 3 Xrotation Zrotation Yrotation
				JOINT neck
				{
					OFFSET	0.000000 12.342733 -1.613748
					CHANNELS 3 Xrotation Zrotation Yrotation
					JOINT head
					{
						OFFSET	0.000000 4.485597 1.807195
						CHANNELS 3 Xrotation Zrotation Yrotation
						End Site
						{
							OFFSET 0.000000 7.191734 2.024398
						}
					}
				}
				JOINT lCollar
				{
					OFFSET	1.858774 10.237258 -1.915852
					CHANNELS 3 Zrotation Yrotation Xrotation
					JOINT lShldr
					{
						OFFSET	6.103279 0.000102 -0.038601
						CHANNELS 3 Zrotation Yrotation Xrotation
						JOINT lForeArm
						{
							OFFSET	10.574100 -0.365985 -0.655940
							CHANNELS 3 Zrotation Yrotation Xrotation
							JOINT lHand
							{
								OFFSET	13.213392 -0.641131 0.276866
								CHANNELS 3 Zrotation Yrotation Xrotation
								JOINT lThumb1
								{
									OFFSET	1.920964 -1.225712 1.722395
									CHANNELS 3 Zrotation Yrotation Xrotation
									JOINT lThumb2
									{
										OFFSET	0.248544 -0.143036 0.768265
										CHANNELS 3 Zrotation Yrotation Xrotation
										JOINT lThumb3
										{
											OFFSET	0.628484 -0.225174 0.508305
											CHANNELS 3 Zrotation Yrotation Xrotation
											End Site
											{
												OFFSET 0.831712 -0.207978 0.609962
											}
										}
									}
								}
								JOINT lIndex1
								{
									OFFSET	5.093442 -0.710319 1.829884
									CHANNELS 3 Zrotation Yrotation Xrotation
									JOINT lIndex2
									{
										OFFSET	0.889470 -0.051998 0.127073
										CHANNELS 3 Zrotation Yrotation Xrotation
										JOINT lIndex3
										{
											OFFSET	0.889570 -0.155981 0.127073
											CHANNELS 3 Zrotation Yrotation Xrotation
											End Site
											{
												OFFSET 0.797115 -0.294470 0.076252
											}
										}
									}
								}
								JOINT lMid1
								{
									OFFSET	5.154641 -0.519844 0.864111
									CHANNELS 3 Zrotation Yrotation Xrotation
									JOINT lMid2
									{
										OFFSET	0.928821 -0.051992 0.050831
										CHANNELS 3 Zrotation Yrotation Xrotation
										JOINT lMid3
										{
											OFFSET	0.984253 -0.311865 0.050831
											CHANNELS 3 Zrotation Yrotation Xrotation
											End Site
											{
												OFFSET 0.779717 -0.606438 -0.050831
											}
										}
									}
								}
								JOINT lRing1
								{
									OFFSET	4.924408 -0.754930 -0.235503
									CHANNELS 3 Zrotation Yrotation Xrotation
									JOINT lRing2
									{
										OFFSET	0.981624 -0.036924 -0.108278
										CHANNELS 3 Zrotation Yrotation Xrotation
										JOINT lRing3
										{
											OFFSET	0.805613 -0.205247 -0.041717
											CHANNELS 3 Zrotation Yrotation Xrotation
											End Site
											{
												OFFSET 0.667431 -0.470481 -0.035991
											}
										}
									}
								}
								JOINT lPinky1
								{
									OFFSET	4.535460 -0.816635 -1.006206
									CHANNELS 3 Zrotation Yrotation Xrotation
									JOINT lPinky2
									{
										OFFSET	0.690596 -0.064334 -0.168800
										CHANNELS 3 Zrotation Yrotation Xrotation
										JOINT lPinky3
										{
											OFFSET	0.598039 -0.111176 -0.071973
											CHANNELS 3 Zrotation Yrotation Xrotation
											End Site
											{
												OFFSET 0.422025 -0.290925 -0.035981
											}
										}
									}
								}
							}
						}
					}
				}
				JOINT rCollar
				{
					OFFSET	-1.858774 10.237258 -1.915852
					CHANNELS 3 Zrotation Yrotation Xrotation
					JOINT rShldr
					{
						OFFSET	-6.103279 0.000102 -0.038601
						CHANNELS 3 Zrotation Yrotation Xrotation
						JOINT rForeArm
						{
							OFFSET	-10.574100 -0.365985 -0.655940
							CHANNELS 3 Zrotation Yrotation Xrotation
							JOINT rHand
							{
								OFFSET	-13.213392 -0.641131 0.276866
								CHANNELS 3 Zrotation Yrotation Xrotation
								JOINT rIndex1
								{
									OFFSET	-5.093442 -0.710319 1.829884
									CHANNELS 3 Zrotation Yrotation Xrotation
									JOINT rIndex2
									{
										OFFSET	-0.889470 -0.051998 0.127073
										CHANNELS 3 Zrotation Yrotation Xrotation
										JOINT rIndex3
										{
											OFFSET	-0.889570 -0.155981 0.127073
											CHANNELS 3 Zrotation Yrotation Xrotation
											End Site
											{
												OFFSET -0.797115 -0.294470 0.076252
											}
										}
									}
								}
								JOINT rThumb1
								{
									OFFSET	-1.920964 -1.225712 1.722395
									CHANNELS 3 Zrotation Yrotation Xrotation
									JOINT rThumb2
									{
										OFFSET	-0.248544 -0.143036 0.768265
										CHANNELS 3 Zrotation Yrotation Xrotation
										JOINT rThumb3
										{
											OFFSET	-0.628484 -0.225174 0.508305
											CHANNELS 3 Zrotation Yrotation Xrotation
											End Site
											{
												OFFSET -0.831712 -0.207978 0.609962
											}
										}
									}
								}
								JOINT rMid1
								{
									OFFSET	-5.154641 -0.519844 0.864111
									CHANNELS 3 Zrotation Yrotation Xrotation
									JOINT rMid2
									{
										OFFSET	-0.928821 -0.051992 0.050831
										CHANNELS 3 Zrotation Yrotation Xrotation
										JOINT rMid3
										{
											OFFSET	-0.984253 -0.311865 0.050831
											CHANNELS 3 Zrotation Yrotation Xrotation
											End Site
											{
												OFFSET -0.779717 -0.606438 -0.050831
											}
										}
									}
								}
								JOINT rRing1
								{
									OFFSET	-4.924408 -0.754930 -0.235503
									CHANNELS 3 Zrotation Yrotation Xrotation
									JOINT rRing2
									{
										OFFSET	-0.981624 -0.036924 -0.108278
										CHANNELS 3 Zrotation Yrotation Xrotation
										JOINT rRing3
										{
											OFFSET	-0.805613 -0.205247 -0.041717
											CHANNELS 3 Zrotation Yrotation Xrotation
											End Site
											{
												OFFSET -0.667431 -0.470481 -0.035991
											}
										}
									}
								}
								JOINT rPinky1
								{
									OFFSET	-4.535460 -0.816635 -1.006206
									CHANNELS 3 Zrotation Yrotation Xrotation
									JOINT rPinky2
									{
										OFFSET	-0.690596 -0.064334 -0.168800
										CHANNELS 3 Zrotation Yrotation Xrotation
										JOINT rPinky3
										{
											OFFSET	-0.598039 -0.111176 -0.071973
											CHANNELS 3 Zrotation Yrotation Xrotation
											End Site
											{
												OFFSET -0.422025 -0.290925 -0.035981
											}
										}
									}
								}
							}
						}
					}
				}
			}
		}
	}
	JOINT lThigh
	{
		OFFSET	5.761895 -0.730553 0.000101
		CHANNELS 3 Xrotation Zrotation Yrotation
		JOINT lShin
		{
			OFFSET	-1.171020 -18.459274 1.627449
			CHANNELS 3 Xrotation Zrotation Yrotation
			JOINT lFoot
			{
				OFFSET	-0.883715 -16.872776 -3.357785
				CHANNELS 3 Xrotation Zrotation Yrotation
				JOINT lToe
				{
					OFFSET	1.287613 -2.778491 2.836049
					CHANNELS 3 Xrotation Yrotation Zrotation
					End Site
					{
						OFFSET 1.362641 -0.436631 3.828194
					}
				}
			}
		}
	}
	JOINT rThigh
	{
		OFFSET	-5.761895 -0.730553 0.000101
		CHANNELS 3 Xrotation Zrotation Yrotation
		JOINT rShin
		{
			OFFSET	1.171020 -18.459274 1.627449
			CHANNELS 3 Xrotation Zrotation Yrotation
			JOINT rFoot
			{
				OFFSET	0.883715 -16.872776 -3.357785
				CHANNELS 3 Xrotation Zrotation Yrotation
				JOINT rToe
				{
					OFFSET	-1.287613 -2.778491 2.836049
					CHANNELS 3 Xrotation Yrotation Zrotation
					End Site
					{
						OFFSET -1.362641 -0.436631 3.828194
					}
				}
			}
		}
	}
}
MOTION
Frames:     5
Frame Time: 0.033333
0.004724 38.926514 -0.871584 8.146607 -1.152812 7.060372 -11.631166 -0.907372 0.038840 -3.355550 -0.307735 -8.190418 15.205675 2.326081 -5.930619 7.696536 -1.457276 -1.108060 -6.415417 -1.660621 6.620515 -5.808895 -1.682078 -4.714137 -75.488914 -4.354587 1.326262 6.662251 -36.663704 -1.515522 14.847338 -4.218885 -1.219934 23.589460 28.354717 41.674637 -6.195664 -5.155256 2.868203 -1.109506 39.957363 34.067280 -18.596863 -1.835202 2.468119 -21.760435 -1.648007 2.672156 -22.106583 -3.578462 0.654334 -27.875534 -1.904559 1.341939 -20.970255 -0.769273 0.775627 -10.642955 -7.333072 -6.475722 -33.860325 -7.357921 -2.987068 -17.246504 4.285935 0.219218 -3.981455 -0.990879 -0.922346 -39.680363 -16.580818 -12.562114 -25.241760 10.008212 -1.022109 2.499911 -2.118464 -1.260222 5.693742 -10.661488 1.795501 79.426613 -2.679335 -3.572459 -13.468891 27.871378 12.856956 -25.105200 -7.946318 -0.151214 26.693521 8.026519 3.139733 25.017801 2.485493 2.928813 19.726709 4.323429 0.181096 -9.627828 -42.296654 10.299001 5.312525 6.050255 1.899415 1.719314 -31.318520 17.471992 42.042843 8.605405 1.597067 26.475103 2.570381 0.444712 6.145544 7.963192 -6.709247 53.938103 13.148332 -4.419182 14.812782 -2.781306 -0.049962 2.221078 1.178111 -0.963074 61.440117 18.960428 -16.146675 30.355827 -6.528512 -2.181506 24.439766 -0.168006 -1.784082 -0.222637 9.822206 -1.864845 16.782358 -1.710812 -2.624567 64.167892 28.712973 1.198447 -20.428217 8.492879 7.798621 -31.091610 -6.639407 -12.240097 15.180283 -2.456568 1.413256 30.915648 -16.628948 1.983935 -13.633955 -5.858204 -5.394078 
-0.037380 39.026691 -0.871584 8.225042 -2.170027 7.139671 -11.621416 -0.926885 0.039676 -3.444893 1.060920 -6.835496 14.757114 2.499562 -5.907642 7.623817 -0.915836 -1.410380 -6.691991 -2.007441 5.563218 -5.782279 -1.877513 -4.264524 -75.707726 -2.884254 1.051960 6.884354 -35.334843 -0.330052 15.582438 -4.266137 -1.258870 14.224449 -4.130599 66.139626 -15.922080 10.628962 19.066069 -17.605915 10.225563 17.170773 -37.875084 -6.857130 4.523572 -50.360016 3.274521 6.629833 -69.943199 2.843126 5.554134 -43.992405 -10.680262 1.571118 -50.293171 -0.165903 2.052354 -59.674084 -2.299020 -4.386536 -48.434612 -14.247147 -4.125667 -46.840153 1.884266 -1.573315 -52.371819 0.508985 -1.712895 -49.020882 -23.758703 -16.310150 -54.892952 4.076690 -4.590703 -45.916523 0.058201 -3.010166 5.778997 -11.091022 1.298649 79.410637 -1.663058 -2.391559 -10.872373 29.487524 6.595114 -28.407171 -10.910598 0.078877 47.763008 5.129816 5.619748 58.006985 -4.345717 7.382044 75.419640 -3.430460 5.830956 -20.324907 -6.607504 58.788048 9.797859 1.670093 6.999952 9.527098 -35.539635 38.081757 46.672665 11.196711 1.641615 58.179131 0.186227 2.225286 65.189674 1.842207 -4.095356 51.227539 15.239355 -4.316069 54.493633 -0.630893 -2.113762 57.933708 -0.361090 -1.920707 51.719727 24.728903 -16.985106 62.236870 -1.562261 -5.456775 81.653137 2.204035 -5.062697 -3.609227 10.822231 -2.930863 24.742147 -1.116685 -1.434216 62.391747 27.656422 3.625391 -17.416454 7.573902 6.731884 -28.680546 -5.172892 -10.036039 13.687053 -1.789854 1.225460 30.523693 -18.315920 0.906344 -13.021061 -5.605719 -5.163504 
-0.073092 39.175625 -0.871584 8.626037 -3.020203 7.163394 -11.621422 -0.936642 0.040093 -3.592491 2.679176 -5.114598 14.220347 2.536935 -5.898843 7.538311 -0.310706 -1.633104 -6.751801 -2.272935 4.219186 -5.726608 -2.014316 -3.785703 -75.905579 -1.198491 1.002324 6.681017 -33.740902 0.126810 16.934563 -4.322570 -1.327180 14.104062 -4.254463 66.520943 -15.776172 10.837562 19.107935 -17.588543 10.270271 17.182156 -37.880775 -6.572937 4.539860 -50.327923 3.522636 6.674961 -69.935890 2.906868 5.578220 -43.954567 -10.398693 1.583951 -50.311234 0.086216 2.132945 -59.648666 -2.259586 -4.355017 -48.342113 -13.937171 -4.111718 -46.916702 2.127996 -1.513714 -52.365013 0.573071 -1.667660 -48.931133 -23.476101 -16.198727 -55.026546 4.247874 -4.566722 -45.888569 0.075287 -2.997225 5.531356 -11.423187 0.743458 79.503510 -0.488794 -0.986220 -8.220326 30.802877 0.479449 -32.552639 -13.430103 0.224053 47.829594 4.250826 5.678152 57.983932 -4.914222 7.491677 75.395882 -3.465255 5.843708 -20.142559 -6.203623 59.777466 9.527674 1.130225 7.037767 9.246140 -35.695747 38.050774 46.676067 10.357437 1.684036 58.238930 -0.393671 2.410775 65.152161 1.825308 -4.081918 51.047478 14.335091 -4.282386 54.751316 -1.180020 -1.980048 57.946667 -0.424606 -1.876093 51.515656 23.902981 -16.667776 62.654327 -1.887366 -5.414746 81.653137 2.204035 -5.062697 -8.409033 11.310264 -3.810771 30.874458 -0.330254 -0.325425 60.346165 26.042973 5.437091 -13.718526 6.599983 5.409503 -26.232124 -3.867352 -7.187856 11.694868 -1.001541 0.818394 30.972799 -16.474495 -2.585472 -13.026765 -5.819712 -5.184165 
-0.106905 39.350655 -0.871584 9.144852 -3.660080 6.897906 -11.621401 -0.907372 0.038840 -3.777101 4.122165 -3.255337 13.728286 2.503648 -5.603467 7.419625 0.191528 -1.666998 -6.410779 -2.333129 2.705362 -5.632047 -2.102239 -3.287099 -76.108238 0.536231 1.078561 6.885435 -31.977810 1.210810 18.457247 -3.628469 -1.307984 14.032057 -4.319558 66.689758 -15.700477 10.955058 19.137510 -17.567720 10.304929 17.188200 -37.910133 -6.453095 4.549997 -50.318913 3.666740 6.702169 -69.921997 2.942526 5.591259 -43.960625 -10.271631 1.591420 -50.323940 0.235685 2.180794 -59.631470 -2.235857 -4.336258 -48.305035 -13.787725 -4.106533 -46.960087 2.259164 -1.481520 -52.366844 0.612964 -1.639563 -48.904591 -23.333885 -16.147291 -55.094643 4.347806 -4.552438 -45.880726 0.099709 -2.980027 5.048186 -11.150081 0.133116 79.265038 0.736600 0.509055 -6.306686 31.817911 -3.938138 -36.227104 -14.968224 0.268678 47.856934 3.758027 5.710617 57.951939 -5.268741 7.559361 75.391518 -3.501656 5.857190 -20.049078 -5.991843 60.304100 9.346449 0.809929 7.044546 9.024041 -35.818317 38.016766 46.651157 9.880276 1.708594 58.279358 -0.749226 2.524783 65.115356 1.800727 -4.062492 50.923584 13.816885 -4.263829 54.911793 -1.524416 -1.896172 57.949024 -0.472465 -1.842372 51.384724 23.415815 -16.484753 62.911770 -2.093236 -5.388132 81.653137 2.204035 -5.062697 -13.702306 11.683736 -3.171171 35.819660 0.624335 0.149971 58.131226 24.230425 6.670778 -11.336810 6.088276 4.555376 -24.057444 -3.265461 -5.694067 10.167814 -0.433249 0.757647 30.782944 -17.106615 -1.551869 -12.988837 -5.959851 -5.184859 
-0.121008 39.523170 -0.871584 9.634676 -3.873612 6.278727 -11.631117 -0.829319 0.035500 -3.985904 5.297616 -1.296089 13.361324 2.303989 -4.864923 7.298748 0.554632 -1.497444 -5.714587 -2.137109 1.057983 -5.508431 -2.131525 -2.758640 -76.349335 2.201805 1.212038 7.115963 -30.286453 2.143534 20.531034 -1.565539 -1.141225 13.946403 -4.390289 66.845718 -15.635296 11.064733 19.168139 -17.543455 10.329529 17.183651 -37.967999 -6.321090 4.564065 -50.301483 3.800322 6.726808 -69.917793 2.978947 5.605247 -43.995827 -10.133748 1.600601 -50.327633 0.366224 2.222435 -59.623989 -2.212472 -4.317899 -48.305531 -13.650686 -4.103639 -47.003384 2.390334 -1.449723 -52.368290 0.644879 -1.617083 -48.904137 -23.196554 -16.100199 -55.181347 4.436411 -4.541424 -45.852760 0.116794 -2.967086 4.623126 -10.291011 -0.508780 78.860069 1.957862 1.976583 -5.769539 32.579227 -5.583735 -38.510559 -15.386061 0.231442 47.873955 3.638687 5.719627 57.953197 -5.326960 7.571082 75.391518 -3.501656 5.857190 -20.015167 -5.928711 60.444324 9.332086 0.745661 7.062618 9.012345 -35.825180 38.020882 46.667366 9.772323 1.713658 58.295933 -0.805750 2.543084 65.095879 1.799960 -4.061759 50.912636 13.708372 -4.260440 54.953068 -1.579690 -1.883317 57.949024 -0.472465 -1.842372 51.372440 23.315216 -16.447729 62.963398 -2.117017 -5.385906 81.653137 2.204035 -5.062697 -19.531666 11.665958 -1.511636 39.396339 1.480207 -1.364479 55.402946 22.617964 7.840248 -9.849706 5.887565 4.029193 -21.886330 -3.254151 -3.742038 8.871735 0.107756 0.334831 30.975634 -16.605759 0.510965 -13.439957 -6.345489 -5.372193 
